inDegrees=yes
name=ik_l_comf_01-000_00_orientations
DataType=double
version=3
OpenSimVersion=4.5
endheader
time	pelvis_tilt	pelvis_list	pelvis_rotation	pelvis_tx	pelvis_ty	pelvis_tz	hip_flexion_r	hip_adduction_r	hip_rotation_r	knee_angle_r	knee_angle_r_beta	ankle_angle_r	subtalar_angle_r	mtp_angle_r	hip_flexion_l	hip_adduction_l	hip_rotation_l	knee_angle_l	knee_angle_l_beta	ankle_angle_l	subtalar_angle_l	mtp_angle_l	lumbar_extension	lumbar_bending	lumbar_rotation	arm_flex_r	arm_add_r	arm_rot_r	elbow_flex_r	pro_sup_r	wrist_flex_r	wrist_dev_r	arm_flex_l	arm_add_l	arm_rot_l	elbow_flex_l	pro_sup_l	wrist_flex_l	wrist_dev_l
30.49999999999934	50.92511372526081	41.41350182029697	-90.92517530768656	0	0.9399999999999999	0	-29.99700909327039	29.99623194335281	-39.99411905431056	22.87026219946926	0.3991613761751387	-39.96852717168334	0	0	119.9732644704618	-49.99404414226061	39.973204275711	49.69164921439795	0.8672828895372978	-39.89692010562436	0	0	0	0	0	0	-12.92321101845701	0	74.24929616193066	45.00038536094847	0	0	0	-12.92321101845701	0	74.24929616193066	45.00038536094847	0	0
30.52499999999933	51.14292873796575	41.32626870263981	-90.63499549869296	0	0.9399999999999999	0	-29.99699792724889	29.99625043088546	-39.99406401345444	22.39112685576315	0.3907988868647924	-39.97028879846898	0	0	119.9725494652778	-49.99404078717322	39.97418972619907	51.18137091720867	0.8932834381897614	-39.84841116803499	0	0	0	0	0	0	-12.92402216653621	0	74.24986922594746	45.00038454887147	0	0	0	-12.92402216653621	0	74.24986922594746	45.00038454887147	0	0
30.54999999999933	51.22916188948174	41.23661961639029	-90.33484489284685	0	0.9399999999999999	0	-29.99699566534357	29.99626764934972	-39.99398811051173	21.98125866720141	0.383645337475205	-39.97181149850917	0	0	119.9724499401675	-49.99402498264287	39.97397489493707	52.54070963534874	0.9170083744711448	-39.70191798739968	0	0	0	0	0	0	-12.92481482263049	0	74.25042879311592	45.00038375744729	0	0	0	-12.92481482263049	0	74.25042879311592	45.00038375744729	0	0
30.57499999999933	51.11411235993766	41.09444764002571	-90.08424197064905	0	0.9399999999999999	0	-29.99700228078974	29.99628083457012	-39.99392252016427	21.69605044896741	0.3786675150132753	-39.97325559279182	0	0	119.9729704926097	-49.99401412791897	39.97264236413049	54.05212593380006	0.9433875652474255	-39.13764071679572	0	0	0	0	0	0	-12.92584049208657	0	74.25115144045833	45.00038273942599	0	0	0	-12.92584049208657	0	74.25115144045833	45.00038273942599	0	0
30.59999999999933	50.96333826379581	40.89903941216796	-89.99359209348947	0	0.9399999999999999	0	-29.99701301202013	29.99629620578621	-39.99387884573778	21.32024226470962	0.3721084248420353	-39.97481136647257	0	0	119.9737404923588	-49.99401575970998	39.97047567876135	55.88322284849777	0.9753462353320104	-38.00853924542562	0	0	0	0	0	0	-12.92684701130674	0	74.25185905426567	45.00038174704575	0	0	0	-12.92684701130674	0	74.25185905426567	45.00038174704575	0	0
30.62499999999933	50.88283240468617	40.68900688379338	-90.01677050450323	0	0.9399999999999999	0	-29.99702494156574	29.99631386249548	-39.99386461047293	20.85434474673566	0.3639769791765203	-39.97620859878469	0	0	119.9742840895641	-49.99402764471433	39.96826616365968	57.90238928780984	1.010587337843776	-36.5678123923233	0	0	0	0	0	0	-12.92775156867506	0	74.25249486116394	45.00038085615665	0	0	0	-12.92775156867506	0	74.25249486116394	45.00038085615665	0	0
30.64999999999933	50.8768995472115	40.47520856806628	-90.00663128045782	0	0.9399999999999999	0	-29.99703948119396	29.99633582291155	-39.99387102870298	20.35632790996492	0.3552849456445037	-39.97748325167692	0	0	119.9750930249795	-49.99404402429509	39.96583389368286	59.93811492610072	1.046117452899215	-35.18384824892161	0	0	0	0	0	0	-12.92857451722198	0	74.25307092304406	45.00038005539467	0	0	0	-12.92857451722198	0	74.25307092304406	45.00038005539467	0	0
30.67499999999933	50.87001785390455	40.24668733438592	-89.94327483131086	0	0.9399999999999999	0	-29.99705239009895	29.99636226401988	-39.99392381368627	19.86412178605148	0.346694328183735	-39.97856546679452	0	0	119.9757080417015	-49.99409928795617	39.96402182430769	62.08260942620801	1.083545942716997	-33.71748320966223	0	0	0	0	0	0	-12.92966861927255	0	74.25383689932799	45.00037899214573	0	0	0	-12.92966861927255	0	74.25383689932799	45.00037899214573	0	0
30.69999999999932	50.82162379975166	40.04208482041607	-89.84536325817932	0	0.9399999999999999	0	-29.99705982222313	29.99639470190343	-39.9940089084177	19.39800619820837	0.3385590764810039	-39.97950945560847	0	0	119.9758144713623	-49.99418371026525	39.9638033334642	64.14780887057276	1.11959047273152	-32.38963801489225	0	0	0	0	0	0	-12.93069566242668	0	74.25455613296398	45.000377993937	0	0	0	-12.93069566242668	0	74.25455613296398	45.000377993937	0	0
30.72499999999932	50.75919545068197	39.87326806159965	-89.71656703619531	0	0.9399999999999999	0	-29.99705292038367	29.9964275207711	-39.99403274244962	18.91728403012618	0.3301688918606439	-39.98031439895977	0	0	119.9748036371871	-49.99425066235107	39.96484479536682	66.18206865386385	1.155095003790856	-30.99075154808625	0	0	0	0	0	0	-12.93185874416949	0	74.25537104824666	45.00037686322954	0	0	0	-12.93185874416949	0	74.25537104824666	45.00037686322954	0	0
30.74999999999932	50.77733803945054	39.72499640375651	-89.60751326135181	0	0.9399999999999999	0	-29.99704032969122	29.99645172876317	-39.9940206591874	18.35334411503969	0.3203262835589675	-39.98099459014928	0	0	119.9732584999241	-49.99428411853883	39.96608326086127	68.23428081145984	1.190912862890362	-29.46079418336394	0	0	0	0	0	0	-12.93299353125518	0	74.25616603278077	45.00037576127137	0	0	0	-12.93299353125518	0	74.25616603278077	45.00037576127137	0	0
30.77499999999932	50.83589432171852	39.58740156190394	-89.52539923499994	0	0.9399999999999999	0	-29.99703017436868	29.9964708582932	-39.99400508678423	17.76707769628538	0.3100940042578289	-39.98162295658122	0	0	119.9718045525333	-49.99430290469116	39.96676375719217	70.2301955165871	1.225748146083805	-27.8610262431295	0	0	0	0	0	0	-12.93399640106125	0	74.2568680875178	45.00037478997631	0	0	0	-12.93399640106125	0	74.2568680875178	45.00037478997631	0	0
30.79999999999932	50.85723308464463	39.42720781194609	-89.47010635871143	0	0.9399999999999999	0	-29.99702753780905	29.99647909839835	-39.99400882573604	17.25751828643282	0.3012005148213826	-39.9821449512664	0	0	119.9711732694302	-49.99431575919185	39.96630739035371	72.20086189295469	1.260142762809765	-26.09632586012813	0	0	0	0	0	0	-12.93518808626408	0	74.25770075475867	45.0003736432061	0	0	0	-12.93518808626408	0	74.25770075475867	45.0003736432061	0	0
30.82499999999932	50.83902678771246	39.24081943683481	-89.47038366733393	0	0.9399999999999999	0	-29.99703071954046	29.99648222024005	-39.99399350561873	16.82419444372573	0.2936375870387499	-39.98264487256923	0	0	119.9716337589394	-49.99430390418662	39.96335716024904	74.17610059456894	1.294617181665751	-24.12620940758897	0	0	0	0	0	0	-12.9362143951375	0	74.25841539617858	45.00037266560959	0	0	0	-12.9362143951375	0	74.25841539617858	45.00037266560959	0	0
30.84999999999932	50.93132471195523	38.95379729496082	-89.51869290795756	0	0.9399999999999999	0	-29.99705017103337	29.99648558785086	-39.9940640384936	16.39331498392838	0.2861173217860715	-39.98322791691773	0	0	119.9736062107867	-49.9943208624827	39.95861416719424	76.25197019540707	1.330847941042437	-22.14990922013869	0	0	0	0	0	0	-12.93757142932056	0	74.25935710708499	45.00037138975716	0	0	0	-12.93757142932056	0	74.25935710708499	45.00037138975716	0	0
30.87499999999931	50.6597928994603	38.59915955338934	-89.40303346777938	0	0.9399999999999999	0	-29.99706451638905	29.99647992421244	-39.99406059043605	16.38993087874479	0.286058258008384	-39.98372482147361	0	0	119.9749515728859	-49.99428061306097	39.95058225243089	78.15231515464633	1.36401521750484	-20.19665412955483	0	0	0	0	0	0	-12.93841278188664	0	74.25994346371377	45.00037058777911	0	0	0	-12.93841278188664	0	74.25994346371377	45.00037058777911	0	0
30.89999999999931	50.12198176662632	38.26365972585796	-89.12959076407688	0	0.9399999999999999	0	-29.99707042016786	29.99647629791907	-39.99394414596107	16.61532062339641	0.2899920511527841	-39.98427107573234	0	0	119.9753734263168	-49.99421054534773	39.93770238727753	79.80045570375088	1.392780696622341	-18.33962609957234	0	0	0	0	0	0	-12.93944937878271	0	74.2606682718849	45.0003695915549	0	0	0	-12.93944937878271	0	74.2606682718849	45.0003695915549	0	0
